<?xml version="1.0" encoding="UTF-8"?><svg id="Layer_2" xmlns="http://www.w3.org/2000/svg" viewBox="0 0 15.81 36.09"><g id="Layer_1-2"><path d="m0,6.33c-.02-1.47.51-2.66,1.3-3.75.59-.82,1.28-1.53,2.21-1.96.68-.31,1.39-.4,2.15-.35.77.06,1.45.37,2.19.52.72.16,1.4.1,2.04-.25C10.49.22,11.12.03,11.78,0c1.16-.05,2.05.46,2.7,1.4.64.92.95,1.96,1.17,3.04.11.51.16,1.03.15,1.56-.02.8-.21,1.55-.53,2.27-.45,1-1.09,1.87-1.76,2.73-.73.95-1.11,2.01-1,3.22.06.64.26,1.25.56,1.81.39.72.69,1.46.83,2.26.21,1.16-.06,2.15-.98,2.93-.71.6-1.93.63-2.83.07-.78-.49-1.42-1.12-1.98-1.84-.48-.62-1.04-1.16-1.63-1.66-.51-.43-.97-.91-1.42-1.39-.43-.46-.84-.94-1.21-1.44-.56-.75-1.06-1.55-1.51-2.37-.45-.82-.89-1.64-1.27-2.49-.42-.95-.81-1.91-.99-2.94-.05-.31-.09-.62-.07-.84Z"/><path d="m15.27,31.31c-.03,1.26-.55,2.38-1.34,3.4-.4.52-.9.93-1.51,1.17-.71.29-1.42.28-2.12-.03-.9-.4-1.54-1.09-2.1-1.87-.53-.74-.96-1.54-1.14-2.45-.22-1.18.06-2.21.9-3.09.87-.91,1.94-1.31,3.18-1.26,1.05.04,1.97.45,2.75,1.14.72.63,1.18,1.41,1.33,2.37.03.18.02.38.04.62Z"/></g></svg>